<svg width="138" height="47" viewBox="0 0 138 47" fill="none" xmlns="http://www.w3.org/2000/svg">
<path d="M49.006 18.0909H43.5821C41.5331 18.0909 39.9662 18.6515 38.8814 19.7727C37.7966 20.8636 37.2542 22.5 37.2542 24.6818V38.5455H30.9263V24.6818C30.9263 21.5909 31.8906 19.197 33.8191 17.5C35.7777 15.7727 38.5801 14.9091 42.2261 14.9091H49.006V18.0909Z" fill="#000077"/>
<path d="M56.4338 31.0455C56.4338 33.9242 58.1665 35.3636 61.6317 35.3636H67.9596V26.7273H61.6317C58.1665 26.7273 56.4338 28.1667 56.4338 31.0455ZM67.9596 23.5455C67.9596 21.3636 67.3871 19.7576 66.2421 18.7273C65.1271 17.697 63.6657 17.1818 61.8577 17.1818C60.5018 17.1818 59.1759 17.3939 57.8802 17.8182C56.5845 18.2121 55.4244 18.7576 54.3999 19.4545L52.8179 16.7273C53.4808 16.2727 54.204 15.8788 54.9875 15.5455C55.801 15.2121 56.6297 14.9394 57.4734 14.7273C58.3171 14.4848 59.1458 14.303 59.9594 14.1818C60.8031 14.0606 61.5865 14 62.3097 14C64.2382 14 65.9407 14.2273 67.4172 14.6818C68.8937 15.1364 70.1442 15.7879 71.1688 16.6364C72.1933 17.4848 72.9617 18.5 73.4739 19.6818C74.0163 20.8333 74.2875 22.1212 74.2875 23.5455V38.5455H61.6317C57.5337 38.5455 54.5053 37.9242 52.5467 36.6818C50.6182 35.4394 49.654 33.5606 49.654 31.0455C49.654 28.5303 50.6182 26.6515 52.5467 25.4091C54.5053 24.1667 57.5337 23.5455 61.6317 23.5455H67.9596Z" fill="#09DA5D"/>
<path d="M86.6961 18.0909V35.3636H92.346C93.3705 35.3636 94.3046 35.2121 95.1483 34.9091C96.0222 34.5758 96.7604 34.0606 97.3631 33.3636C97.9959 32.6667 98.478 31.7727 98.8094 30.6818C99.171 29.5909 99.3518 28.2727 99.3518 26.7273C99.3518 25.1818 99.171 23.8636 98.8094 22.7727C98.478 21.6818 97.9959 20.7879 97.3631 20.0909C96.7604 19.3939 96.0222 18.8939 95.1483 18.5909C94.3046 18.2576 93.3705 18.0909 92.346 18.0909H86.6961ZM92.346 14.9091C94.4251 14.9091 96.3084 15.1818 97.9959 15.7273C99.7134 16.2727 101.175 17.0606 102.38 18.0909C103.585 19.1212 104.505 20.3636 105.137 21.8182C105.8 23.2727 106.132 24.9091 106.132 26.7273C106.132 28.5455 105.8 30.1818 105.137 31.6364C104.505 33.0909 103.585 34.3333 102.38 35.3636C101.175 36.3939 99.7134 37.1818 97.9959 37.7273C96.3084 38.2727 94.4251 38.5455 92.346 38.5455H86.6961V46.7273H80.3682V14.9091H92.346Z" fill="#09DA5D"/>
<path d="M117.638 18.0909V35.3636H123.288C124.312 35.3636 125.247 35.2121 126.09 34.9091C126.964 34.5758 127.702 34.0606 128.305 33.3636C128.938 32.6667 129.42 31.7727 129.751 30.6818C130.113 29.5909 130.294 28.2727 130.294 26.7273C130.294 25.1818 130.113 23.8636 129.751 22.7727C129.42 21.6818 128.938 20.7879 128.305 20.0909C127.702 19.3939 126.964 18.8939 126.09 18.5909C125.247 18.2576 124.312 18.0909 123.288 18.0909H117.638ZM123.288 14.9091C125.367 14.9091 127.25 15.1818 128.938 15.7273C130.655 16.2727 132.117 17.0606 133.322 18.0909C134.527 19.1212 135.447 20.3636 136.079 21.8182C136.742 23.2727 137.074 24.9091 137.074 26.7273C137.074 28.5455 136.742 30.1818 136.079 31.6364C135.447 33.0909 134.527 34.3333 133.322 35.3636C132.117 36.3939 130.655 37.1818 128.938 37.7273C127.25 38.2727 125.367 38.5455 123.288 38.5455H117.638V46.7273H111.31V14.9091H123.288Z" fill="#09DA5D"/>
<path d="M32.9263 4C32.9263 6.20914 31.1355 8 28.9263 8C26.7172 8 24.9263 6.20914 24.9263 4C24.9263 1.79086 26.7172 0 28.9263 0C31.1355 0 32.9263 1.79086 32.9263 4Z" fill="#09DA5D"/>
<path d="M4.72633 0V0.00491301C2.61011 0.109119 0.926331 1.85793 0.926331 4C0.926331 6.14207 2.61011 7.89088 4.72633 7.99509V8H12.9263V36C12.9263 38.2091 14.7172 40 16.9263 40C19.1355 40 20.9263 38.2091 20.9263 36V8.19532C20.8601 8.19843 20.7934 8.2 20.7263 8.2C18.4067 8.2 16.5263 6.3196 16.5263 4C16.5263 2.12835 17.7506 0.542646 19.442 0H4.72633Z" fill="#000077"/>
</svg>
